<svg width="21" height="21" viewBox="0 0 21 21" fill="none" xmlns="http://www.w3.org/2000/svg">
<path d="M15.5 10C18.5376 10 21 12.4624 21 15.5C21 18.5376 18.5376 21 15.5 21C12.4624 21 10 18.5376 10 15.5C10 12.4624 12.4624 10 15.5 10ZM6.52973 17.2396C7.27736 17.6012 8.07862 17.8445 8.91079 17.9588C9.45793 18.034 9.84055 18.5385 9.76539 19.0856C9.69022 19.6327 9.18574 20.0154 8.63859 19.9402C7.59777 19.7972 6.59463 19.4926 5.659 19.0401C5.16181 18.7997 4.95367 18.2017 5.19411 17.7045C5.43456 17.2073 6.03254 16.9992 6.52973 17.2396ZM15.5 11.9992L15.4101 12.0073C15.206 12.0443 15.0451 12.2053 15.0081 12.4094L15 12.4992L14.9997 14.9992L12.4977 15L12.4078 15.0081C12.2037 15.0451 12.0428 15.206 12.0057 15.4101L11.9977 15.5L12.0057 15.5899C12.0428 15.794 12.2037 15.9549 12.4078 15.992L12.4977 16L15.0007 15.9992L15.0011 18.5035L15.0092 18.5934C15.0462 18.7975 15.2071 18.9584 15.4112 18.9954L15.5011 19.0035L15.591 18.9954C15.7951 18.9584 15.956 18.7975 15.9931 18.5934L16.0011 18.5035L16.0007 15.9992L18.5046 16L18.5944 15.992C18.7985 15.9549 18.9595 15.794 18.9965 15.5899L19.0046 15.5L18.9965 15.4101C18.9595 15.206 18.7985 15.0451 18.5944 15.0081L18.5046 15L15.9997 14.9992L16 12.4992L15.9919 12.4094C15.9549 12.2053 15.794 12.0443 15.5899 12.0073L15.5 11.9992ZM2.87826 13.6704C3.25906 14.4131 3.75435 15.0926 4.34436 15.6836C4.73455 16.0745 4.73403 16.7076 4.34318 17.0978C3.95233 17.488 3.31917 17.4875 2.92897 17.0967C2.1926 16.3591 1.57428 15.5108 1.09855 14.5829C0.846572 14.0914 1.04071 13.4888 1.53216 13.2368C2.02361 12.9848 2.62628 13.179 2.87826 13.6704ZM1.27672 7.46473C1.82239 7.54999 2.19562 8.06145 2.11036 8.60712C2.04498 9.02551 2.00868 9.4498 2.00089 9.89741C1.99467 10.3128 2.02003 10.7245 2.07625 11.13C2.1521 11.677 1.77011 12.182 1.22306 12.2578C0.676009 12.3337 0.171049 11.9517 0.0952002 11.4046C0.0249988 10.8983 -0.0066346 10.3849 0.00115525 9.86504C0.0105721 9.32381 0.0547044 8.80799 0.134334 8.29836C0.219594 7.7527 0.73106 7.37947 1.27672 7.46473ZM17.6962 7.06302C19.1667 7.63288 19.9662 8.76422 19.9952 10.2136C19.9987 10.3885 19.9571 10.5537 19.8811 10.6983C19.2479 10.1205 18.5016 9.66689 17.6791 9.37427C17.5167 9.19501 17.2853 9.04871 16.9735 8.92787C16.4585 8.7283 16.2029 8.14905 16.4024 7.63409C16.602 7.11912 17.1813 6.86345 17.6962 7.06302ZM13.2496 4.65372C13.601 5.30487 14.086 5.79315 14.8416 6.17739C15.3339 6.42774 15.53 7.02977 15.2796 7.52205C15.0293 8.01433 14.4272 8.21045 13.935 7.9601C12.8067 7.38632 12.0292 6.60359 11.4895 5.60351C11.2273 5.11748 11.4087 4.51085 11.8947 4.24858C12.3807 3.9863 12.9873 4.16769 13.2496 4.65372ZM4.38068 2.58769C4.77241 2.977 4.77437 3.61016 4.38506 4.0019C3.80992 4.58061 3.31945 5.26321 2.93587 6.02272C2.68689 6.5157 2.08541 6.7135 1.59243 6.46453C1.09945 6.21555 0.901652 5.61408 1.15063 5.1211C1.62839 4.17512 2.24224 3.32081 2.96647 2.59207C3.35578 2.20034 3.98894 2.19838 4.38068 2.58769ZM9 0.00134277C10.6138 0.00134277 11.6168 0.647722 12.2094 1.89304C12.4467 2.39175 12.2348 2.9884 11.736 3.22569C11.2373 3.46299 10.6407 3.25107 10.4034 2.75237C10.157 2.23451 9.87537 2.02909 9.16006 2.00401L8.96499 2.00144C8.15332 2.00608 7.35757 2.17189 6.60459 2.4886C6.0955 2.70273 5.50922 2.46361 5.2951 1.95453C5.08097 1.44544 5.32009 0.85916 5.82917 0.645036C6.71163 0.273871 7.64332 0.0589176 8.59557 0.011405L9 0.00134277Z" fill="#161634"/>
</svg>
