<svg width="21" height="20" viewBox="0 0 21 20" fill="none" xmlns="http://www.w3.org/2000/svg">
<path d="M14.289 0C17.6027 0 20.289 2.68629 20.289 6C20.289 7.5373 19.7069 8.98434 18.685 10.0835L18.4952 10.2784L9.76807 19.0053L9.71494 19.0548L9.65922 19.0997C8.99 19.6759 8.135 20 7.23196 20C5.17685 20 3.51086 18.334 3.51086 16.2789C3.51086 15.3775 3.83387 14.5248 4.40642 13.8574L4.55471 13.6945L4.56979 13.6826L11.8608 6.37879C12.251 5.98793 12.8841 5.98737 13.275 6.37755C13.6659 6.76774 13.6664 7.4009 13.2763 7.79177L5.98524 15.0956L5.97431 15.1039C5.67801 15.4208 5.51086 15.8354 5.51086 16.2789C5.51086 17.2294 6.28142 18 7.23196 18C7.61092 18 7.96885 17.8781 8.26318 17.6571L8.38531 17.5564L8.38609 17.558L17.0885 8.85707L17.247 8.69267C17.9122 7.96299 18.289 7.0125 18.289 6C18.289 3.79086 16.4981 2 14.289 2C13.2274 2 12.2344 2.4146 11.4939 3.13858L11.3391 3.29842L11.3206 3.31139L1.99535 12.6403C1.60491 13.0309 0.971749 13.031 0.581137 12.6406C0.190526 12.2501 0.190384 11.617 0.580821 11.2264L9.88978 1.91324L9.93639 1.87021C11.0603 0.68577 12.6207 0 14.289 0Z" fill="#3368F2"/>
</svg>
