<svg width="20" height="16" viewBox="0 0 20 16" fill="none" xmlns="http://www.w3.org/2000/svg">
<path d="M19.978 6.72075L19.9786 12.662C19.9786 14.3073 18.8369 15.6527 17.3961 15.7501L17.2286 15.7557H2.75072C1.28819 15.7557 0.0923157 14.4713 0.00573874 12.8504L0.000719786 12.662L0 6.72075H19.978ZM16.2426 10.6642H13.7426L13.6408 10.6719C13.2747 10.7278 12.9926 11.0808 12.9926 11.508C12.9926 11.9351 13.2747 12.2881 13.6408 12.344L13.7426 12.3517H16.2426L16.3443 12.344C16.7104 12.2881 16.9926 11.9351 16.9926 11.508C16.9926 11.0808 16.7104 10.7278 16.3443 10.6719L16.2426 10.6642ZM17.2286 0C18.6911 0 19.887 1.28442 19.9735 2.90529L19.9786 3.09375L19.978 5.03325H0L0.000719786 3.09375C0.000719786 1.4484 1.14242 0.103045 2.5832 0.00564605L2.75072 0H17.2286Z" fill="white"/>
</svg>
