<svg width="20" height="19" viewBox="0 0 20 19" fill="none" xmlns="http://www.w3.org/2000/svg">
<path d="M7.42857 17.924L10.9911 16.4118C11.1244 17.2921 10.6531 18.1845 9.79582 18.5485C8.93849 18.9124 7.96915 18.6314 7.42857 17.924ZM12.8613 0.0934938C14.947 1.23304 16.5128 2.69616 17.543 4.48058C18.5732 6.265 19.0575 8.35256 19.0015 10.7286C18.9917 11.1427 18.6481 11.4705 18.234 11.4608C17.8199 11.451 17.4921 11.1074 17.5019 10.6933C17.5516 8.58196 17.1304 6.76593 16.244 5.23058C15.3575 3.69524 13.9954 2.42242 12.1421 1.40984C11.7786 1.21124 11.6449 0.755573 11.8435 0.392073C12.0421 0.0285743 12.4978 -0.105104 12.8613 0.0934938ZM3.71144 4.51505C6.57319 3.24091 9.91558 4.44567 11.3109 7.26056L11.4092 7.46998L12.6966 10.3618L14.3949 11.8316C14.4876 11.9118 14.5679 12.0053 14.661 12.1564L14.7197 12.2707C14.9991 12.902 14.7138 13.6402 14.0825 13.9196L3.75588 18.4898C3.59655 18.5603 3.42424 18.5967 3.25 18.5967C2.55964 18.5967 2 18.0371 2 17.3471L1.99892 15.0041L0.756541 12.2128C-0.556963 9.26264 0.765718 5.82656 3.71144 4.51505ZM12.6237 3.69414C13.5907 4.22141 14.3657 4.98877 14.94 5.98345C15.5142 6.97812 15.7913 8.03296 15.7644 9.13404C15.7543 9.54813 15.4105 9.87563 14.9964 9.86553C14.5823 9.85542 14.2548 9.51155 14.2649 9.09746C14.2849 8.27587 14.0792 7.49251 13.6409 6.73345C13.2027 5.97438 12.6272 5.40452 11.9056 5.01108C11.542 4.81278 11.4079 4.35723 11.6062 3.99356C11.8045 3.6299 12.2601 3.49584 12.6237 3.69414Z" fill="#161634"/>
</svg>
