<svg width="22" height="22" viewBox="0 0 22 22" fill="none" xmlns="http://www.w3.org/2000/svg">
<path d="M9.25 3.25C9.66421 3.25 10 3.58579 10 4V12H18C18.3797 12 18.6935 12.2822 18.7432 12.6482L18.75 12.75C18.75 17.7206 14.7206 21.25 9.75 21.25C4.77944 21.25 0.75 17.2206 0.75 12.25C0.75 7.27944 4.27944 3.25 9.25 3.25ZM12.25 0.75C17.2206 0.75 21.25 4.77944 21.25 9.75C21.25 10.1642 20.9142 10.5 20.5 10.5H12.25C11.8358 10.5 11.5 10.1642 11.5 9.75V1.5C11.5 1.08579 11.8358 0.75 12.25 0.75Z" fill="#161634"/>
</svg>
