<svg width="20" height="17" viewBox="0 0 20 17" fill="none" xmlns="http://www.w3.org/2000/svg">
<path d="M19.9883 7.36906L19.9889 13.3103C19.9889 14.9556 18.8472 16.301 17.4064 16.3984L17.2389 16.404H2.76103C1.2985 16.404 0.102631 15.1196 0.0160537 13.4987L0.0110347 13.3103L0.0103149 7.36906H19.9883ZM16.2529 11.3125H13.7529L13.6511 11.3202C13.285 11.3761 13.0029 11.7291 13.0029 12.1563C13.0029 12.5834 13.285 12.9364 13.6511 12.9923L13.7529 13H16.2529L16.3547 12.9923C16.7207 12.9364 17.0029 12.5834 17.0029 12.1563C17.0029 11.7291 16.7207 11.3761 16.3547 11.3202L16.2529 11.3125ZM17.2389 0.648315C18.7014 0.648315 19.8973 1.93273 19.9839 3.5536L19.9889 3.74207L19.9883 5.68156H0.0103149L0.0110347 3.74207C0.0110347 2.09672 1.15274 0.751361 2.59351 0.653961L2.76103 0.648315H17.2389Z" fill="#161634"/>
</svg>
