<svg width="13" height="15" viewBox="0 0 13 15" fill="none" xmlns="http://www.w3.org/2000/svg">
<path d="M1.90381 1.91438C4.44221 -0.638126 8.55779 -0.638126 11.0962 1.91438C13.5838 4.41583 13.6336 8.4404 11.2455 11.0028L11.0962 11.1578C10.4132 11.8446 9.27072 12.9667 7.66765 14.5253C7.01652 15.1583 5.98349 15.1582 5.33246 14.5251L2.45868 11.7112C2.2465 11.5009 2.06155 11.3164 1.90381 11.1578C-0.634602 8.6053 -0.634602 4.46688 1.90381 1.91438ZM8.76214 4.26139L8.69935 4.20688C8.50452 4.06152 8.23711 4.05972 8.04049 4.20149L7.97036 4.26139L6.5 5.73966L5.02964 4.26139L4.96685 4.20688C4.77202 4.06152 4.50461 4.05972 4.30799 4.20149L4.23786 4.26139L4.18365 4.32453C4.03909 4.52044 4.0373 4.78933 4.17829 4.98704L4.23786 5.05757L5.70796 6.53609L4.23786 8.01462L4.18365 8.07776C4.03909 8.27367 4.0373 8.54256 4.17829 8.74027L4.23786 8.8108L4.30065 8.86531C4.49548 9.01067 4.76289 9.01246 4.95951 8.87069L5.02964 8.8108L6.5 7.33253L7.97036 8.8108L8.03315 8.86531C8.22798 9.01067 8.49539 9.01246 8.69201 8.87069L8.76214 8.8108L8.81635 8.74765C8.96091 8.55174 8.9627 8.28285 8.82171 8.08514L8.76214 8.01462L7.29204 6.53609L8.76214 5.05757L8.81635 4.99443C8.96091 4.79852 8.9627 4.52962 8.82171 4.33191L8.76214 4.26139Z" fill="#2B2B38"/>
</svg>
