<svg width="14" height="16" viewBox="0 0 14 16" fill="none" xmlns="http://www.w3.org/2000/svg">
<path d="M11.7676 11.7676L10.8279 12.6969C10.1353 13.3767 9.23661 14.2506 8.13157 15.319C7.44105 15.9867 6.34552 15.9866 5.65509 15.3188L2.89131 12.6304C2.54395 12.2894 2.2532 12.0018 2.01899 11.7676C-0.672998 9.07557 -0.672998 4.71099 2.01899 2.01899C4.71099 -0.672998 9.07557 -0.672998 11.7676 2.01899C14.4596 4.71099 14.4596 9.07557 11.7676 11.7676ZM8.8726 7.11075C8.8726 6.0176 7.98643 5.13142 6.89328 5.13142C5.80013 5.13142 4.91395 6.0176 4.91395 7.11075C4.91395 8.2039 5.80013 9.09007 6.89328 9.09007C7.98643 9.09007 8.8726 8.2039 8.8726 7.11075Z" fill="#2B2B38"/>
</svg>
