<svg width="36" height="36" viewBox="0 0 36 36" fill="none" xmlns="http://www.w3.org/2000/svg">
<path d="M22.866 19.9372L23.1118 20.1828L33.1458 30.711V21.0521C33.1458 20.31 33.7475 19.7083 34.4896 19.7083C35.1699 19.7083 35.7321 20.2139 35.8211 20.8697L35.8333 21.0521V30.9104C35.8333 33.5308 33.7878 35.6734 31.2064 35.8285L30.9063 35.8375H21.0521C20.31 35.8375 19.7083 35.2359 19.7083 34.4938C19.7083 33.8135 20.2139 33.2513 20.8697 33.1623L21.0521 33.15L30.5193 33.1494L20.5179 22.6551C20.4779 22.6131 20.4369 22.5722 20.395 22.5322C19.0372 21.2393 16.93 21.2211 15.5516 22.4414L15.3289 22.6563L5.33558 33.1494L14.7813 33.15L14.9636 33.1623C15.6195 33.2513 16.125 33.8135 16.125 34.4938C16.125 35.1741 15.6195 35.7363 14.9636 35.8253L14.7813 35.8375H4.92708L4.62694 35.8285C2.14881 35.6796 0.164502 33.699 0.00972189 31.2225L0 30.9104V21.0521L0.0122669 20.8697C0.101245 20.2139 0.663462 19.7083 1.34375 19.7083C2.02404 19.7083 2.58625 20.2139 2.67523 20.8697L2.6875 21.0521V30.7343L12.7338 20.1852C15.4633 17.3188 19.9996 17.2078 22.866 19.9372ZM14.7813 0C15.5234 0 16.125 0.601617 16.125 1.34375C16.125 2.02404 15.6195 2.58625 14.9636 2.67523L14.7813 2.6875H4.92708C3.7675 2.6875 2.81375 3.56878 2.69906 4.6981L2.6875 4.92708V14.7854C2.6875 15.5276 2.08588 16.1292 1.34375 16.1292C0.663462 16.1292 0.101245 15.6237 0.0122669 14.9678L0 14.7854V4.92708C0 2.30671 2.04555 0.164109 4.62694 0.00899207L4.92708 0H14.7813ZM30.9063 0L31.2064 0.00899207C33.6845 0.157904 35.6688 2.13849 35.8236 4.61503L35.8333 4.92708V14.7854L35.8211 14.9678C35.7321 15.6237 35.1699 16.1292 34.4896 16.1292C33.8093 16.1292 33.2471 15.6237 33.1581 14.9678L33.1458 14.7854V4.92708L33.1343 4.6981C33.0272 3.64406 32.1893 2.80611 31.1352 2.69906L30.9063 2.6875H21.0521L20.8697 2.67523C20.2139 2.58625 19.7083 2.02404 19.7083 1.34375C19.7083 0.663462 20.2139 0.101245 20.8697 0.0122667L21.0521 0H30.9063ZM25.0888 7.16667C27.0678 7.16667 28.6721 8.77098 28.6721 10.75C28.6721 12.729 27.0678 14.3333 25.0888 14.3333C23.1098 14.3333 21.5055 12.729 21.5055 10.75C21.5055 8.77098 23.1098 7.16667 25.0888 7.16667Z" fill="#3368F2"/>
</svg>
